<svg width="33" height="35" viewBox="0 0 33 35" fill="none" xmlns="http://www.w3.org/2000/svg">
<g clip-path="url(#clip0)">
<path d="M27.0419 29.4949L26.9706 29.5572C27.0181 29.5211 27.0351 29.5047 27.0419 29.4949Z" fill="#49380B"/>
<path d="M31.7819 24.1733C31.7513 24.2323 31.731 24.2782 31.7344 24.3044C31.7412 24.2716 31.7615 24.2225 31.7819 24.1733Z" fill="#49380B"/>
<path d="M12.3504 31.4741C12.3538 31.461 12.3097 31.4381 12.2316 31.4053C12.269 31.4315 12.3097 31.4545 12.3504 31.4741Z" fill="#49380B"/>
<path d="M24.806 2.20861L24.8399 2.21188C24.8128 2.20205 24.806 2.20205 24.806 2.20861Z" fill="#49380B"/>
<path d="M8.69617 2.4478L8.69956 2.44453C8.70974 2.43797 8.71652 2.43142 8.7267 2.42487L8.69617 2.4478Z" fill="#49380B"/>
<path d="M7.8988 2.83776C7.9497 2.80499 8.00059 2.77222 8.05827 2.73618C7.96666 2.78205 7.92595 2.81482 7.8988 2.83776Z" fill="#49380B"/>
<path d="M31.3713 24.8483C31.3578 24.8647 31.3408 24.8877 31.3239 24.9073C31.3272 24.9204 31.334 24.9204 31.3713 24.8483Z" fill="#49380B"/>
<path d="M31.0422 24.3109C31.0185 24.324 30.9065 24.3896 30.4688 24.6583C30.4518 24.6878 30.4349 24.714 30.4179 24.7435C30.0752 25.3104 30.0718 25.4283 29.892 25.756C29.814 25.8248 29.7834 25.8347 29.7936 25.7921C29.9191 25.6806 29.8818 25.6905 29.9022 25.6348C29.7698 25.8183 29.5425 25.9821 29.5968 25.8642C29.3932 26.1558 29.7054 25.7855 29.59 25.969L29.2847 26.3524C29.3491 26.3295 29.4611 26.1984 29.3288 26.4147C29.21 26.5949 29.1184 26.6539 28.925 26.857C28.9386 26.8177 28.8232 26.8832 28.9691 26.7358C28.8639 26.8243 28.718 26.975 28.6875 27.0569C28.925 26.857 28.3618 27.4403 28.5619 27.3158L28.3244 27.5157C28.3719 27.4665 28.3618 27.4436 28.4398 27.3748C28.338 27.401 28.2769 27.5681 28.2057 27.65C28.1276 27.7254 27.9003 27.8958 27.8698 27.8991C27.8053 27.9744 27.6153 28.1186 27.5644 28.1285C27.4626 28.23 27.5814 28.1612 27.561 28.2038L27.181 28.5217C27.1403 28.5151 27.0555 28.4791 27.103 28.4201C26.9808 28.561 27.1132 28.5315 26.8926 28.7117C26.9876 28.5741 26.5567 28.8887 26.706 28.7019C26.5465 28.7609 26.1733 29.0198 25.9731 29.177C25.8713 29.3048 26.214 29.0427 26.2276 29.0918C25.6542 29.5113 25.6949 29.6555 25.2165 29.8848L25.342 29.8291C25.0672 30.0126 25.0977 29.9897 24.9484 30.1175C24.9722 30.0683 24.8704 30.0815 24.7041 30.1372C24.5345 30.1863 24.3174 30.3141 24.0663 30.4157C24.0391 30.4616 24.3716 30.3436 24.3106 30.4222L23.9848 30.5763C23.9577 30.5828 23.9916 30.5566 24.0289 30.5337C23.7405 30.6811 23.4454 30.7041 23.3877 30.8056L23.0518 30.8581L23.1841 30.8417C23.1536 30.8843 22.8278 31.0448 22.7566 31.0711C22.4173 31.2185 22.2782 31.2349 22.0746 31.2644C22.1425 31.2677 22.3155 31.2677 22.0407 31.3693C22.0135 31.2775 21.4469 31.5265 21.4401 31.4774C21.3281 31.5102 21.1144 31.5233 21.111 31.5659L21.1144 31.5036C21.111 31.5888 20.6903 31.6806 20.3713 31.769C20.3917 31.7166 20.3306 31.7232 20.2424 31.7461C20.2153 31.8411 20.1881 31.9296 20.1644 31.9984C20.1372 32.0803 20.0999 32.195 20.0558 32.3294C20.3985 32.2868 20.6496 32.1262 21.033 32.1131L20.9583 32.1426L21.1415 32.0836C21.1755 32.0934 21.1042 32.1229 21.1008 32.1491L21.5351 32.0541C21.6776 32.0148 21.8201 31.9656 21.9592 31.923L21.7828 31.9493C21.9592 31.887 22.0644 31.8084 22.2782 31.7658C21.9592 31.9362 22.5598 31.6773 22.631 31.7035L22.4546 31.7789C22.7023 31.6937 22.7023 31.6937 22.665 31.6609C22.9805 31.5364 22.9194 31.674 23.1909 31.5134C23.123 31.5429 23.0552 31.5724 22.9839 31.5921C22.9127 31.5888 23.0552 31.5134 23.1875 31.4512C23.2214 31.4446 23.3266 31.4184 23.2248 31.4676C23.4623 31.3463 23.8356 31.2054 23.9373 31.1432C24.0765 31.0973 24.0459 31.1432 23.9781 31.1858C24.4802 30.917 24.2257 31.1071 24.7143 30.8122L24.7177 30.8384L24.8738 30.7172L25.1418 30.6254L25.0401 30.6483C25.1995 30.5533 25.2945 30.4812 25.4913 30.3895L25.4336 30.4616C25.6576 30.3239 25.8001 30.2617 25.9358 30.1994C26.0715 30.1306 26.1903 30.0487 26.3837 29.8881C26.4142 29.875 26.3565 29.9274 26.3294 29.9537C26.6789 29.6456 26.6551 29.8062 26.9978 29.4851C26.9808 29.5113 27.0317 29.4949 27.0249 29.5113L27.1844 29.3704L27.2014 29.4163L27.2998 29.2622C27.3473 29.2524 27.388 29.2328 27.4321 29.2164L27.4796 29.1443C27.7137 29.0689 27.9105 28.8068 28.1955 28.656L28.1141 28.6462C28.243 28.4955 28.3923 28.3513 28.5586 28.2104C28.7146 28.0596 28.8775 27.8991 29.0471 27.7418C29.2168 27.5812 29.3932 27.4174 29.5663 27.2535C29.6511 27.1683 29.7393 27.0864 29.8173 26.9979C29.892 26.9029 29.9599 26.8079 30.0277 26.7129L30.0549 26.7555L30.2483 26.4147C30.4077 26.2738 30.2041 26.5392 30.2652 26.5031C30.4993 26.1591 30.3127 26.3229 30.6011 25.9362C30.7809 25.7593 30.5774 26.0247 30.5197 26.1263C30.8013 25.7691 31.1135 25.1826 31.3103 24.927C31.3069 24.9171 31.3103 24.8975 31.3001 24.9106C31.4358 24.6419 31.6869 24.3306 31.8158 24.0226C31.8328 24.0389 31.7988 24.1143 31.7683 24.1897C31.8226 24.0848 31.9108 23.9472 31.9346 23.8456L31.9176 23.9767C32.0024 23.8227 32.1144 23.5573 32.1992 23.4C32.1347 23.4655 32.0737 23.531 32.0024 23.5933C31.5545 23.9734 31.3035 24.1667 31.0422 24.3109Z" fill="#49380B"/>
<path d="M12.7711 31.5724L12.7779 31.5626L12.4725 31.5331L12.3538 31.4709C12.3538 31.484 12.2995 31.4938 12.1977 31.4512C12.174 31.425 12.079 31.3824 12.0925 31.3627C11.7838 31.2579 11.8007 31.2972 11.7532 31.2972C11.7227 31.2874 11.7023 31.2808 11.6786 31.271C11.648 31.3005 11.6243 31.3299 11.5938 31.3562C11.5632 31.4086 11.5293 31.4545 11.4954 31.5036C11.6616 31.5462 11.7905 31.5855 11.9229 31.6281C12.0077 31.6544 12.0993 31.6838 12.2011 31.7166C12.3063 31.7396 12.4284 31.7625 12.5743 31.792C12.1129 31.7363 13.0663 31.9853 12.5879 31.8936C12.6456 31.9132 12.6931 31.9263 12.7372 31.9329C12.7609 31.8149 12.7847 31.697 12.8152 31.5724C12.7949 31.579 12.7881 31.579 12.7711 31.5724Z" fill="#49380B"/>
<path d="M12.822 31.5265C12.822 31.52 12.8254 31.5134 12.8254 31.5069L12.71 31.4774C12.7406 31.4905 12.7813 31.5102 12.822 31.5265Z" fill="#49380B"/>
<path d="M4.03759 26.0968C4.00706 26.0345 4.17331 26.2312 4.10545 26.146C4.04438 26.0214 3.95616 25.9821 3.91205 25.9231C3.89509 25.8576 3.59312 25.4939 3.65419 25.4775C3.4065 25.0613 3.45061 25.3661 3.24364 24.963C3.24364 24.8942 3.43704 25.2645 3.36579 25.0744L3.11471 24.6812C3.15203 24.7074 3.2131 24.7304 3.29453 24.8811C3.14524 24.6058 3.0197 24.3568 2.91113 24.1241C2.79916 23.8915 2.69737 23.6785 2.62951 23.4524C2.55147 23.2296 2.47683 23.0166 2.38522 22.7905C2.3004 22.5644 2.17486 22.3415 2.07985 22.0761C2.06967 21.9123 2.14432 22.1744 2.21218 22.2694C2.04932 21.8959 1.97806 21.6141 1.91699 21.3487C1.85592 21.0832 1.80163 20.8342 1.72698 20.4967L1.68966 20.4934C1.64216 20.0084 1.48608 19.5038 1.43858 18.9598C1.39447 18.6944 1.35715 18.4192 1.31983 18.1472C1.27911 17.8752 1.29608 17.5967 1.28929 17.328L1.26893 17.459C1.22822 17.3116 1.21465 17.0724 1.1875 16.8921C1.20447 16.8659 1.27233 17.0199 1.24179 16.7054C1.23161 16.7709 1.22482 16.902 1.20447 16.8627C1.21465 16.7447 1.21125 16.6136 1.22482 16.4694C1.2384 16.3252 1.25536 16.1647 1.27233 15.9976C1.31304 15.66 1.31304 15.2799 1.37751 14.8867C1.44537 14.4935 1.51323 14.0839 1.58448 13.6776C1.68287 13.2778 1.80163 12.8846 1.90681 12.5208C2.4429 10.5285 3.60329 8.54929 4.92994 6.99607C4.73994 7.24511 4.75012 7.08454 4.91298 6.91087C5.1912 6.72409 5.38121 6.52093 5.56782 6.30793C5.75783 6.10149 5.92408 5.86556 6.21249 5.69188C7.07769 4.86284 8.01076 4.31561 8.92007 3.67007L8.96079 3.69628C9.11687 3.63075 9.14062 3.58487 9.2933 3.4964L9.29669 3.5095C9.44938 3.43086 9.60885 3.33911 9.76153 3.25063C9.7751 3.2408 9.78528 3.23097 9.79885 3.22442C10.0364 2.91967 10.3248 2.67063 10.6064 2.45764L10.6267 2.43798C10.681 2.38555 10.7387 2.33639 10.7964 2.29052C10.8371 2.25775 10.8778 2.22498 10.9151 2.19549C11.251 1.73673 11.7023 1.36645 12.2418 1.10758C12.2995 1.05187 12.3673 1.00272 12.4318 0.950287C12.3775 0.963394 12.3232 0.976502 12.2689 0.992886C12.0959 1.04859 11.9228 1.10758 11.7532 1.16L11.8245 1.12396L11.1391 1.32385L11.6446 1.19933C11.4987 1.25831 11.3902 1.31074 11.2476 1.35662C11.061 1.41232 10.8507 1.45492 10.6471 1.54012C10.4401 1.62204 10.223 1.71052 10.0024 1.79899C9.78189 1.89074 9.55795 1.98577 9.33402 2.08408C9.11347 2.19221 8.9065 2.32329 8.70292 2.44781C8.21773 2.83775 8.29577 2.56905 7.81736 2.92623C7.85468 2.89018 7.86486 2.87052 7.89879 2.84103C7.38306 3.21786 7.11502 3.44069 6.62643 3.84702C6.62643 3.78804 6.53821 3.84374 6.46017 3.91583C6.38553 3.98792 6.31088 4.06657 6.31428 4.03052L6.3007 4.09606C6.17856 4.16815 5.9173 4.37787 5.93426 4.32216L5.75444 4.54171L5.70693 4.52533C5.56782 4.64657 5.34049 4.83335 5.14709 5.02013C4.95709 5.21346 4.77726 5.38058 4.67886 5.42318C4.38368 5.77708 3.96973 6.19979 3.60669 6.70443C3.41668 6.94692 3.21989 7.19596 3.02649 7.44172C2.84666 7.69404 2.68719 7.95618 2.53112 8.19539C2.47683 8.34941 2.3004 8.63449 2.16468 8.85732C2.09682 8.92613 2.04932 9.00478 1.98824 9.08014C1.88306 9.32591 1.81859 9.60444 1.67948 9.81088C1.67609 9.8076 1.67609 9.79777 1.67948 9.77811C1.5743 10.0239 1.42162 10.2369 1.37411 10.4892C1.26893 10.7612 1.14339 11.02 1.12982 10.9217C1.20107 10.9774 0.8991 11.5017 0.8991 11.5017C0.8991 11.5017 0.878742 11.5574 0.838026 11.6623C0.817668 11.7147 0.793918 11.7803 0.763381 11.8556C0.743023 11.9343 0.715879 12.0228 0.688736 12.1243C0.634448 12.3275 0.566589 12.5765 0.488551 12.8616C0.451228 13.0058 0.407119 13.1565 0.363011 13.3204C0.322295 13.4809 0.301937 13.6579 0.268008 13.8381C-0.0407523 15.2799 -0.139148 17.3149 0.234078 19.4088C0.593732 21.5027 1.46912 23.6195 2.57523 25.2284C2.64308 25.33 2.70076 25.4349 2.77202 25.5332C2.84666 25.6282 2.91791 25.72 2.99256 25.8117C3.13846 25.9952 3.28096 26.1755 3.41668 26.3491C3.55919 26.5195 3.68133 26.6965 3.82723 26.8472C3.90188 26.9226 3.97313 26.9914 4.04438 27.0635C4.07831 26.8472 4.13599 26.6145 4.22421 26.3622L4.03759 26.0968Z" fill="#49380B"/>
<path d="M23.5064 2.85413C23.6862 2.95244 23.7575 3.02781 24.1205 3.16216L23.995 3.14905C24.1748 3.20476 24.2732 3.19493 24.5209 3.37188C24.5311 3.40792 24.47 3.38171 24.392 3.34238C24.3071 3.30962 24.202 3.26702 24.1307 3.24408C24.3275 3.31617 24.7822 3.58487 24.6668 3.46363C24.8907 3.57832 24.9484 3.66024 25.057 3.73888C25.0672 3.73233 24.8738 3.5947 25.0095 3.64713C25.2843 3.8503 25.7559 4.08623 26.0749 4.35493C26.0647 4.36148 26.0783 4.39425 26.0443 4.37787C26.3497 4.52533 26.2581 4.59086 26.6347 4.84646C26.7569 4.93493 26.8926 5.02013 27.0215 5.12171C27.1437 5.22657 27.2692 5.33471 27.3981 5.44612C27.656 5.66567 27.9207 5.89177 28.1887 6.11787C28.4262 6.37019 28.6671 6.62251 28.8978 6.86827C29.0132 6.99279 29.1252 7.11403 29.2337 7.232C29.3321 7.3598 29.4204 7.48432 29.5086 7.60556C29.7155 7.77596 29.9463 8.08398 30.1872 8.38545L30.1397 8.4641L30.3263 8.72297C30.3704 8.84749 30.1872 8.5198 30.2754 8.7328L30.384 8.80816C30.3704 8.84421 30.7843 9.51924 30.4586 9.09325C30.6554 9.42421 30.8658 9.7519 31.0184 10.1058C31.3442 10.25 31.6394 10.4499 31.887 10.7022C32.0906 10.8136 32.2738 10.9545 32.4367 11.1183L32.6742 11.3608C32.7896 11.4264 32.8947 11.505 32.9965 11.5869C32.9931 11.5804 32.9931 11.5771 32.9898 11.5705L32.9999 11.5902C33.0033 11.5935 33.0033 11.5935 33.0067 11.5968C32.8472 11.2494 32.9117 11.1085 32.7081 10.8431C32.6776 10.6661 32.5113 10.3712 32.5656 10.3647C32.3078 9.90263 32.1415 9.52579 31.8701 9.07687C31.8972 8.96873 31.809 8.98184 31.6869 8.68692L31.6597 8.72624C31.4629 8.41167 31.2967 8.04794 31.0829 7.70059C30.859 7.3598 30.6282 7.00918 30.3738 6.68477L30.3941 6.64217L30.2584 6.53731C29.9768 6.19652 29.6341 5.8164 29.3118 5.45267C29.1557 5.26262 28.9759 5.10533 28.813 4.95787C28.6468 4.80713 28.4941 4.66951 28.3651 4.55154C28.2701 4.48273 28.1514 4.39425 28.0191 4.29922C27.9546 4.24679 27.8867 4.19436 27.8155 4.14193C27.7408 4.09278 27.6662 4.03708 27.5949 3.98137L27.6289 4.00103C27.3608 3.81753 27.0894 3.63075 26.8078 3.43741C26.6687 3.34238 26.5329 3.23425 26.3904 3.13922C26.2445 3.04747 26.0952 2.95572 25.9426 2.86396C25.9901 2.87052 25.9358 2.82464 26.0104 2.85741C25.8408 2.81154 25.6508 2.65097 25.5218 2.57232L25.6576 2.69029C25.4642 2.62148 25.2368 2.44453 25.1622 2.36588C25.0638 2.32328 24.9654 2.28396 24.8602 2.25775C24.8432 2.24464 24.8161 2.22498 24.8161 2.21843L24.755 2.21515L24.6261 2.09391C24.5481 2.07097 24.1579 1.90713 24.0154 1.90057C23.995 1.87108 23.7303 1.73345 23.9441 1.82193C23.8389 1.77277 23.7337 1.72362 23.6319 1.67447C23.6489 1.78916 23.6625 1.90713 23.6625 2.02509C23.6557 2.29379 23.6048 2.57233 23.5064 2.85413Z" fill="#49380B"/>
<path d="M27.8868 27.8565C27.863 27.8892 27.8596 27.8991 27.8698 27.8991C27.8902 27.8761 27.8969 27.8598 27.8868 27.8565Z" fill="#49380B"/>
<path d="M29.9022 25.6348C29.9293 25.5987 29.9531 25.5594 29.97 25.5233C29.9293 25.5791 29.9123 25.6118 29.9022 25.6348Z" fill="#49380B"/>
<path d="M24.0358 30.5271C24.0392 30.5238 24.0459 30.5206 24.0527 30.5173C24.1715 30.4452 24.0968 30.4878 24.0358 30.5271Z" fill="#49380B"/>
<path d="M21.508 31.4053C21.4639 31.4381 21.4503 31.4545 21.4503 31.4643C21.508 31.4479 21.5419 31.4282 21.508 31.4053Z" fill="#49380B"/>
<path d="M18.512 14.5099C18.4781 14.5951 18.1083 14.5787 18.0031 14.6278C17.8945 14.6803 17.7826 14.772 17.6672 14.8965C17.5518 15.0211 17.45 15.0866 17.3618 15.0866C17.2974 15.0866 17.2634 15.0342 17.2634 14.9293C17.2634 14.8867 17.3279 14.7458 17.4602 14.5C17.4602 14.5099 17.4636 14.5164 17.467 14.5164C17.4738 14.5164 17.4908 14.4771 17.5247 14.3985C17.5586 14.3198 17.5892 14.2608 17.6231 14.2248C17.657 14.1887 17.6876 14.1461 17.7147 14.097C17.7418 14.0478 17.7622 14.0052 17.7724 13.9626C17.7826 13.8873 17.8504 13.6513 17.9692 13.2483L18.1015 12.8846L18.5765 12.0129C18.6851 11.6 18.8174 11.2986 18.9701 11.1085C19.1228 10.9185 19.2144 10.7448 19.2415 10.5842C19.2687 10.4269 19.3637 10.2369 19.5299 10.0206C19.6928 9.80433 19.8183 9.43077 19.9066 8.90319L20.0558 8.27076C20.0558 7.84805 19.8794 7.40567 19.5232 6.94692C19.1669 6.48816 18.8751 6.25878 18.6444 6.25878C18.3695 6.25878 18.1354 6.38002 17.9386 6.62251L17.5349 7.27132C17.26 7.46138 17.0463 7.7694 16.8868 8.19867C16.7273 8.62794 16.517 8.91958 16.2557 9.07687C16.0793 9.25709 15.9198 9.47664 15.7705 9.73551C15.6212 9.99438 15.4889 10.1779 15.3702 10.2827C15.2514 10.3876 15.1802 10.5088 15.1564 10.6465L14.9596 10.8365C14.8816 10.8791 14.8001 10.9905 14.7119 11.1708L14.5796 11.3281C14.4371 11.4231 14.2674 11.6066 14.0707 11.8818L14.0367 12.0096C13.9723 12.1374 13.9383 12.2226 13.9383 12.262C13.9383 12.3242 13.8603 12.357 13.7076 12.357C13.5447 12.357 13.4192 12.4553 13.3378 12.6519C13.2563 12.8485 13.0901 13.0582 12.8356 13.2843C12.5845 13.5104 12.4251 13.7038 12.3606 13.8643C12.3165 13.884 12.2147 13.9856 12.0552 14.1658C11.8958 14.346 11.6616 14.5951 11.3495 14.9097C11.0373 15.2275 10.8813 15.4176 10.8813 15.4798C10.8813 15.6699 10.827 15.8141 10.7184 15.9091H10.4062C10.2637 15.9714 10.0941 16.2302 9.8973 16.6857C9.83962 16.7119 9.69712 16.7316 9.47657 16.7545L9.23228 16.9773L8.8387 17.1674C8.63173 17.4427 8.28564 17.7179 7.80384 17.9899C7.32204 18.2651 7.03703 18.4028 6.95221 18.4028C6.88774 18.4028 6.8097 18.3307 6.72149 18.1799C6.63327 18.0325 6.58916 17.9014 6.58916 17.7834V17.7212C6.76559 17.0331 6.85042 16.6693 6.85042 16.6267C6.85042 16.6071 6.81649 16.4956 6.75202 16.2925C6.88435 16.0828 6.9556 15.9255 6.96578 15.8239C6.97596 15.7223 7.01667 15.6273 7.08114 15.529C7.14561 15.4339 7.21347 15.2898 7.28472 15.0932C7.35597 14.8965 7.43401 14.7393 7.52223 14.618C7.61044 14.4968 7.67152 14.3722 7.70205 14.2445C7.73598 14.1167 7.82081 13.9495 7.95653 13.7365C8.09224 13.5268 8.19403 13.2188 8.26189 12.819L8.29582 12.7568C9.01852 11.7639 9.37818 11.2101 9.37818 11.0921V11.0299L9.31371 10.7775C9.31371 10.7579 9.32389 10.7448 9.34764 10.7448C9.49015 10.6825 9.67676 10.5187 9.90409 10.2533C10.5386 9.42749 10.9322 8.98511 11.0848 8.92285L11.2172 8.63777L11.7906 7.89392C12.0315 7.7137 12.2656 7.42861 12.4963 7.03867C12.5608 6.82895 12.6727 6.67494 12.8322 6.57991C12.9917 6.48488 13.0799 6.42262 13.1037 6.38985L13.1681 6.13753L17.5993 2.72961C18.071 2.42487 18.3967 2.22826 18.5833 2.14306L18.8446 2.01526C18.909 1.97266 19.038 1.94317 19.2314 1.92023C19.4214 1.90057 19.5876 1.84486 19.7233 1.75311C19.8591 1.66464 20.0151 1.61876 20.1916 1.61876C20.3884 1.61876 20.4868 1.72034 20.4868 1.92023C20.4868 1.98249 20.4223 2.13323 20.29 2.37244C20.1576 2.61165 20.0592 2.74927 19.9948 2.79187C19.3603 3.31945 19.0413 3.78476 19.0413 4.18781C19.0413 4.57775 19.3603 4.77437 19.9948 4.77437C20.256 4.77437 20.5376 4.28939 20.8328 3.31617L20.9652 3.03108C21.0534 2.87379 21.0975 2.76238 21.0975 2.69684C21.0975 2.52645 21.128 2.38882 21.1891 2.27741C21.2502 2.166 21.2807 2.0808 21.2807 2.01526C21.2807 1.97266 21.2502 1.9104 21.1891 1.8252C21.128 1.74001 21.0975 1.5991 21.0975 1.39594C21.0975 1.31074 21.0636 1.20588 20.9991 1.07808L20.8023 0.681584C20.7141 0.334238 20.5376 0.154012 20.2696 0.144181C20.0016 0.131074 19.798 0.085198 19.6555 0H19.591C19.4146 0.085198 19.306 0.127797 19.2619 0.127797C19.2415 0.127797 19.194 0.111413 19.1228 0.0819212C19.0515 0.0491527 18.9837 0.0327685 18.9192 0.0327685L18.4578 0.190057C18.3051 0.190057 18.1117 0.291639 17.8843 0.491527L17.8199 0.458759H17.7215C17.5349 0.563618 17.4195 0.616047 17.3788 0.616047C17.2024 0.786443 17.0531 0.881472 16.9275 0.901133C16.802 0.924071 16.7273 0.943732 16.707 0.963393C16.6188 0.996161 16.5475 1.03876 16.4932 1.09119C16.4389 1.14362 16.3372 1.2026 16.1913 1.26486C16.042 1.32712 15.9029 1.48113 15.7739 1.72362C15.6314 1.67119 15.55 1.64498 15.5262 1.64498C15.3736 1.64498 15.2955 1.71379 15.2955 1.85142C15.2955 1.91368 15.3057 1.97922 15.3294 2.04148C14.9257 2.04148 14.5592 2.22826 14.2301 2.59526C13.996 2.62148 13.8569 2.73617 13.8162 2.94916L13.7178 3.02781C13.2122 3.12283 12.8865 3.36204 12.7304 3.74216C12.632 3.80442 12.4895 3.91255 12.3029 4.06001L12.1706 4.18781C11.8652 4.41064 11.6854 4.57775 11.6379 4.69572C11.587 4.81369 11.5327 4.87922 11.4649 4.90216C10.9186 5.24951 10.6438 5.50838 10.6438 5.67878C10.6438 5.75414 10.5352 5.89505 10.3146 6.10804L10.3486 6.36036C10.3486 6.38002 10.3384 6.39313 10.3146 6.39313C10.2943 6.39313 10.2604 6.37347 10.2162 6.33087H10.1518C10.0093 6.33087 9.89391 6.44556 9.80569 6.67166C9.71748 6.89776 9.63604 7.02228 9.55801 7.04522L9.01513 7.59901C8.78441 7.83166 8.5978 8.07087 8.45529 8.31336L8.42136 8.45426C8.33314 8.55912 8.2585 8.69347 8.19064 8.85076C8.12617 9.00805 8.02778 9.14896 7.90224 9.2702C7.7767 9.39144 7.6817 9.51596 7.61384 9.64376L7.51544 9.8502C7.42722 9.9354 7.38311 10.0075 7.38311 10.073C7.38311 10.1156 7.40347 10.2008 7.44758 10.3253C7.21686 10.3483 7.1015 10.4794 7.1015 10.7218V10.8791L7.06757 11.0692L6.87078 11.102C6.83685 11.2199 6.79274 11.3412 6.73845 11.4657L6.64005 11.6885L6.67398 12.0227L6.4263 11.99C6.00896 12.4324 5.80199 12.7469 5.80199 12.9239V13.0812C5.61538 13.304 5.52377 13.4875 5.52377 13.635C5.52377 13.7398 5.56788 13.7922 5.65609 13.7922H5.75449L5.83592 13.9987H5.68663C5.66627 13.9987 5.6527 14.0085 5.6527 14.0315L5.7511 14.2838L5.48984 14.251L5.42537 14.3133C5.38126 14.3755 5.32019 14.4411 5.24554 14.5099C5.1709 14.5787 5.13018 14.677 5.13018 14.8015L5.09625 15.0243C5.01822 15.1095 4.97411 15.1849 4.96393 15.2537C4.95375 15.3225 4.90285 15.4536 4.81464 15.6502C4.72642 15.8468 4.68231 15.9976 4.68231 16.1024L4.71624 16.7512L4.69588 17.0396L4.72981 17.5934C4.72981 17.7114 4.86893 17.9276 5.14715 18.2422C5.42537 18.5568 5.56448 18.7239 5.56448 18.7337L5.87664 18.891C6.15147 19.1335 6.32451 19.2548 6.40255 19.2548L6.8131 19.2056C6.83345 19.2384 6.8572 19.2548 6.87756 19.2548C7.06418 19.4448 7.32543 19.5398 7.66473 19.5398C7.88188 19.5398 8.13635 19.4972 8.41797 19.412L9.15764 19.1728L10.2739 18.1111C10.3282 17.9309 10.3723 17.8326 10.4062 17.8097L10.603 17.7769L10.6675 17.7146C10.7557 17.4623 10.827 17.3247 10.8813 17.3018L11.0781 17.269C11.1222 17.2493 11.1561 17.2362 11.1765 17.2362L11.2748 17.0625C11.3936 16.9347 11.4818 16.8364 11.5361 16.7611C11.5904 16.6857 11.6413 16.6398 11.6854 16.6169C12.0688 16.4268 12.2588 16.2007 12.2588 15.9353C12.2588 15.8403 12.3199 15.778 12.4386 15.7518C12.5574 15.7256 12.6897 15.5814 12.8322 15.316C13.1172 15.1489 13.2767 15.0309 13.3174 14.9686C13.3547 14.9064 13.3819 14.8671 13.3921 14.8572L13.3581 14.6344L13.4226 14.5394L13.6024 14.5721L13.6364 14.5394C13.7144 14.4345 13.7789 14.3559 13.8331 14.3034L13.7347 13.9856C13.7347 13.943 13.789 13.8709 13.8976 13.7726C14.0062 13.671 14.0842 13.6219 14.1283 13.6219H14.3421C14.3862 13.6219 14.4507 13.553 14.5389 13.4154C14.6576 13.2155 15.0037 12.8387 15.5737 12.2915C15.9029 12.144 16.2184 11.8622 16.5272 11.4526L16.5611 11.6426C16.5611 11.6525 16.5238 11.7639 16.4457 11.9769C16.3677 12.1899 16.3134 12.2947 16.2829 12.2947C16.0623 12.4651 15.9537 12.6585 15.9537 12.8813V13.0091C15.7332 13.3695 15.6246 13.6382 15.6246 13.8185C15.6246 13.8709 15.4991 14.0577 15.248 14.3722L15.2819 14.7065C15.2175 14.7589 15.1734 14.8441 15.1496 14.9588L14.9868 15.0866C14.9325 15.1915 14.8816 15.2734 14.8375 15.3258V15.5159C14.773 15.7059 14.6678 15.9156 14.5253 16.1417C14.3828 16.3678 14.3116 16.594 14.3116 16.8168C14.3116 16.8397 14.2607 16.8692 14.1623 16.9118L14.0299 16.9741L12.4861 18.465C12.3538 18.6453 12.2554 18.7665 12.1909 18.8288L11.1731 19.6676L11.0102 19.9363L10.4029 20.5229C10.2061 20.7228 10.1077 20.8407 10.1077 20.8702L10.1416 21.0275V21.0898C10.1416 21.175 10.1077 21.2635 10.0432 21.3585C9.98891 21.3388 9.95159 21.3257 9.92784 21.3257C9.7073 21.3257 9.57836 21.4732 9.53426 21.7681L9.33746 22.1023L9.12371 22.3546C9.0796 22.4398 8.95066 22.548 8.73691 22.6791C8.52315 22.8101 8.41797 22.9412 8.41797 23.069C8.41797 23.1313 8.42815 23.1837 8.4519 23.2263L8.31957 23.3705L7.99045 23.9406C7.89206 24.0357 7.80045 24.1471 7.71223 24.2749C7.49169 25.0351 7.2474 25.6053 6.97256 25.9854C6.55523 26.7981 6.36522 27.3223 6.39915 27.555L6.43308 27.9351C6.43308 28.0301 6.3788 28.2268 6.27022 28.5217L6.36862 28.8559C6.36862 28.8985 6.35844 28.9182 6.33469 28.9182L6.27022 29.1082V29.141C6.3788 29.3638 6.43987 29.5309 6.45005 29.6489C6.46023 29.7636 6.50773 29.8685 6.58916 29.9569C6.67059 30.0454 6.72148 30.1437 6.74524 30.2518C6.89792 30.8548 7.31525 31.1563 7.99724 31.1563C8.08546 31.1563 8.15671 31.1071 8.211 31.0121C8.26529 30.917 8.4044 30.8679 8.62155 30.8679C8.80816 30.8679 8.94049 30.7925 9.01513 30.6385C9.09317 30.4845 9.19835 30.3928 9.33746 30.36C9.47318 30.3272 9.55801 30.2289 9.59194 30.0683C9.62587 29.9045 9.65301 29.8128 9.67337 29.7898C9.90409 29.7702 10.0398 29.6718 10.0839 29.5047C10.128 29.3343 10.335 29.0198 10.7014 28.5544C11.0679 28.0891 11.2545 27.8303 11.2545 27.7778C11.2545 27.673 11.3597 27.5222 11.5768 27.3256C11.7906 27.129 11.9399 26.9095 12.0213 26.6604C12.1027 26.4114 12.2045 26.2115 12.3267 26.0575C12.4488 25.9035 12.5404 25.7855 12.6083 25.7003L12.6727 25.448L12.9849 25.0843L13.1817 24.4354C13.3581 24.0455 13.4565 23.8161 13.4769 23.7539C13.7721 23.5114 13.9214 23.2427 13.9214 22.9445C13.9214 22.9019 14.0265 22.761 14.2335 22.5152L14.3964 22.2629L14.6916 21.2962C14.8442 20.7588 14.9935 20.4016 15.1428 20.228C15.2887 20.0543 15.3736 19.9396 15.3973 19.8872L15.3328 19.5398V19.5071C15.4753 19.3596 15.5907 19.1958 15.6755 19.0155L15.9368 18.0489C16.0148 17.9538 16.0895 17.8326 16.1675 17.6851L16.4797 17.1936C16.6425 16.8987 17.009 16.6398 17.579 16.417C17.579 16.3973 18.2508 15.896 18.8615 15.4897C18.5731 15.1095 18.4204 14.9785 18.512 14.5099ZM13.2733 19.8675C13.0935 19.956 13.0019 20.1198 13.0019 20.3492V20.5393C12.8153 20.7392 12.6999 20.9227 12.6558 21.0865C12.6117 21.2504 12.5642 21.3749 12.5065 21.4601C12.4522 21.5453 12.4251 21.6174 12.4251 21.6829V21.7779C12.4454 21.8631 12.459 21.9319 12.459 21.9844V22.0171C12.174 22.1122 11.9874 22.371 11.9025 22.7937L11.7533 23.2689C11.7533 23.3443 11.7329 23.3901 11.6888 23.4131C11.3699 23.5081 11.1018 23.8718 10.8847 24.5075L10.7863 24.904C10.7218 25.0515 10.6607 25.1629 10.6064 25.2383L10.3757 25.5234C10.3554 25.6512 10.3316 25.7331 10.3112 25.7757C10.2027 25.8084 10.0941 25.9985 9.99231 26.3458C9.88712 26.6932 9.83623 26.8832 9.83623 26.916C9.83623 27.2208 9.79212 27.3748 9.7039 27.3748H9.53765C9.49354 27.3748 9.4155 27.5091 9.30014 27.7778C9.18478 28.0465 9.08299 28.2235 8.99477 28.3087C8.90656 28.3939 8.76405 28.5708 8.56726 28.8395C8.37047 29.1082 8.10582 29.3343 7.7767 29.5146C7.66812 29.5146 7.61384 29.3933 7.61384 29.1508L7.6783 28.4692L7.57991 28.0891L7.6783 27.8827L7.64437 27.5353C7.64437 27.4927 7.69866 27.3813 7.80724 27.2011V26.9488C8.01421 26.5588 8.11939 26.3 8.11939 26.1722C8.11939 26.0345 8.19743 25.8936 8.35011 25.7429L8.62833 25.2842C8.72673 24.7762 8.86923 24.3797 9.05585 24.0947L9.2221 23.921L9.46979 23.3508C9.81926 22.8855 10.0194 22.5906 10.0703 22.4628C10.1212 22.335 10.1891 22.2498 10.2739 22.2105L10.6675 22.1482C10.7863 22.1056 10.8643 21.9418 10.8982 21.6567C10.9322 21.3716 11.0882 21.1848 11.3665 21.1029C11.6447 21.021 11.8075 20.9456 11.8517 20.8801C11.872 20.5524 11.9568 20.3722 12.1061 20.3427C12.2554 20.3099 12.3674 20.228 12.442 20.0969C12.5201 19.9658 12.6965 19.8315 12.9747 19.6938C13.2529 19.5562 13.3921 19.3891 13.3921 19.1859L13.4565 19.1532L13.538 19.5169C13.5447 19.6578 13.4531 19.779 13.2733 19.8675Z" fill="#49380B"/>
<path d="M32.7218 16.0467L32.4843 15.2504L32.4063 14.8769C32.2909 14.3296 32.1145 13.9725 31.877 13.8086C31.6428 13.6448 31.5003 13.4875 31.4562 13.3335L31.385 13.3138C31.1305 13.2778 30.9982 13.2286 30.9846 13.1664C30.971 13.1041 30.9676 13.0386 30.9778 12.973L30.6996 12.6879C30.4791 12.6027 30.3264 12.5044 30.2348 12.393C30.1364 12.1866 29.9464 12.1112 29.6681 12.1669L29.4747 12.2062L29.1829 12.1669C28.9386 11.967 28.5993 11.8884 28.1617 11.9343C27.724 11.9769 27.3439 11.99 27.0216 11.967C26.6993 11.9441 26.3803 11.9638 26.0716 12.026L25.7628 12.1505C25.6746 12.1047 25.6 12.085 25.5355 12.0981L24.4396 12.3799L23.934 12.4487C23.7508 12.4848 23.5642 12.5536 23.3742 12.6552C23.1842 12.7568 23.0077 12.8256 22.8483 12.8583C22.8279 12.8616 22.6854 12.8354 22.4309 12.7797L22.38 12.8551C22.3224 12.9534 22.2613 13.0091 22.1968 13.0222L21.7897 13.0058L21.7591 13.0123C21.62 13.0386 21.3316 13.2647 20.8973 13.6841C20.877 13.6874 20.8396 13.6546 20.7921 13.5825C20.7446 13.5104 20.6971 13.4809 20.6564 13.4875L20.1475 13.7005C19.8896 13.7529 19.6996 13.8217 19.5741 13.9135L19.0923 14.1691C18.7665 14.2674 18.4985 14.3624 18.2813 14.4574L16.0522 15.5617C15.9368 15.6502 15.8113 15.7157 15.6755 15.7583C15.5398 15.8009 15.4448 15.8829 15.3905 16.0008L15.3634 16.0565C15.3668 16.0926 15.3702 16.1286 15.3702 16.168C15.377 16.6562 15.248 17.0494 15.0614 17.4132C15.1225 17.3706 15.1869 17.3247 15.2616 17.2788C15.6145 17.0461 15.8791 16.8528 16.0589 16.6988L16.3304 16.7086C16.5815 16.5743 16.7749 16.4793 16.9072 16.4334C17.0429 16.3842 17.165 16.3187 17.277 16.24C17.389 16.1581 17.5213 16.086 17.674 16.0238C17.8267 15.9615 18.0201 15.8632 18.2474 15.7321L18.3831 15.7387L19.1228 15.4307C19.7132 15.2177 20.0219 15.0637 20.0491 14.9719L20.3578 15.0211C20.4155 14.9785 20.5037 14.89 20.6191 14.7589C20.7107 14.8802 20.7786 14.9359 20.8227 14.9293C20.8871 14.9162 20.9482 14.8638 21.0059 14.772C21.0636 14.6803 21.1518 14.6213 21.2705 14.5983L21.3689 14.5787C21.5759 14.6016 21.8541 14.5787 22.207 14.5099L22.302 14.4902C22.3936 14.4509 22.5124 14.405 22.6583 14.3559L23.1265 14.1986L23.157 14.192C23.3301 14.2215 23.4386 14.2346 23.4827 14.2248C23.537 14.215 23.6422 14.1298 23.7983 13.9692L24.3174 13.9626L25.1521 13.8611L25.5084 13.7267L25.6034 13.707C25.6475 13.6972 25.7051 13.7103 25.7764 13.7365L26.0207 13.7857C26.2243 13.7464 26.36 13.73 26.4278 13.7365C26.7705 13.8742 26.9775 13.9331 27.0522 13.92L27.0827 13.9135L27.2897 13.7759C27.3982 13.7562 27.4865 13.7922 27.5543 13.884C27.6256 13.979 27.6697 14.0216 27.6934 14.0183L28.1956 13.8545L28.2092 13.9168L28.2736 14.0642C28.2838 14.1166 28.3076 14.1494 28.3449 14.1625C28.7622 14.3395 29.1117 14.5983 29.3967 14.9391C29.4442 15.0604 29.5087 15.1751 29.5867 15.2832C29.6647 15.3913 29.7496 15.6469 29.8344 16.05L29.9396 16.8561L30.099 17.2952C30.1092 17.3378 30.0515 17.4459 29.9328 17.6196L30.133 17.7736C30.1364 17.7933 30.0923 17.8523 29.9939 17.9473C29.8955 18.0423 29.8106 18.1767 29.736 18.3536L29.7496 18.4159C29.753 18.4355 29.7767 18.4978 29.8208 18.5961L29.5494 19.0549C29.5799 19.0909 29.6172 19.1171 29.6647 19.1302C29.4815 19.2744 29.3933 19.3563 29.4001 19.376L29.2644 19.6775L29.0133 19.9199C28.7894 20.287 28.6401 20.4967 28.5586 20.5425L27.6663 21.1553C27.5102 21.2077 27.3847 21.329 27.2931 21.5223C27.1981 21.7124 27.0522 21.8303 26.8486 21.8697C26.8282 21.8729 26.7366 21.8697 26.5771 21.8598C26.1836 22.1646 25.8646 22.3415 25.6169 22.3907C25.5084 22.4103 25.3862 22.4759 25.2471 22.5775C25.108 22.6823 24.9892 22.7479 24.8942 22.7774C24.7992 22.8068 24.6974 22.8593 24.5855 22.9346C24.4735 23.01 24.2597 23.0854 23.9476 23.1575C23.632 23.2296 23.4115 23.3279 23.2826 23.4524L22.984 23.5441L22.3427 23.6064C22.2782 23.6195 22.224 23.685 22.1832 23.7997L22.1256 23.8423C21.8779 23.7833 21.732 23.7571 21.6913 23.767L21.5963 23.7866C21.4843 23.8948 21.3859 23.957 21.3011 23.9734C21.2162 23.9898 21.1246 23.9931 21.0262 23.98C20.9278 23.9669 20.8464 23.9669 20.7819 23.98L20.2662 24.1471C20.1814 24.1635 20.1305 24.1405 20.1169 24.0783L20.1101 24.0488C20.1203 23.8423 20.1135 23.5933 20.0864 23.3082C20.3375 23.0657 20.48 22.738 20.5139 22.3317C20.5512 21.9254 20.6259 21.6075 20.7378 21.3814C20.8498 21.1553 20.9177 20.9227 20.9346 20.6867C20.9516 20.4508 21.0636 20.1559 21.2671 19.8053C21.508 19.5726 21.6404 19.3891 21.6607 19.2515C21.6811 19.1138 21.6641 18.9172 21.6132 18.6715C21.5725 18.4749 21.3655 18.1636 20.9957 17.7408L20.9109 17.6589C20.8261 17.3738 20.7039 17.1871 20.541 17.1019L19.9303 16.7545L19.6792 16.8364C19.6589 16.8397 19.6317 16.8364 19.6012 16.82C19.5707 16.8037 19.5232 16.8037 19.4587 16.8168C19.3298 16.843 19.2042 17.0494 19.0821 17.4426C18.9599 17.8326 18.9158 18.1111 18.9497 18.2782L19.0617 18.6453C18.9667 18.9336 18.9192 19.1335 18.9192 19.2384L18.3763 20.867C18.2135 21.3093 18.1422 21.5813 18.166 21.6862L18.1999 21.8402C18.037 21.8631 17.942 22.027 17.9183 22.3317C17.8945 22.6397 17.8708 22.7937 17.8504 22.797L17.7554 22.9772C17.7486 23.0428 17.7113 23.1575 17.6435 23.3148C17.5756 23.472 17.5518 23.5933 17.5688 23.6785C17.5824 23.7407 17.6536 23.8063 17.7792 23.8784L17.7995 23.9734L17.5281 23.8817C17.4738 23.8915 17.4026 23.9931 17.3143 24.1831C17.2261 24.3732 17.1922 24.5206 17.2159 24.6222C17.2261 24.6648 17.2533 24.7107 17.2974 24.7664C17.3415 24.8221 17.3686 24.8713 17.3788 24.9139C17.3822 24.9335 17.3313 24.9597 17.2295 24.9925C17.1243 25.0253 17.0633 25.0744 17.0429 25.1432L16.9716 25.4316C16.7545 25.6806 16.6934 26.0116 16.7816 26.4245C16.7206 26.4474 16.6595 26.5883 16.6052 26.8472L16.5204 27.2371C16.5272 27.3223 16.4627 27.5222 16.3304 27.8401L16.4288 28.1448L16.3304 28.3087C16.2591 28.3447 16.232 28.4037 16.2489 28.4856L16.2625 28.5479C16.4389 28.8035 16.5306 28.9411 16.534 28.964C16.5475 29.0263 16.534 29.0722 16.4966 29.1017L16.3066 29.0755C16.0725 29.295 15.9538 29.4162 15.947 29.4392L15.2786 31.497C15.0105 32.3916 14.9189 33.0404 15.0071 33.4435C15.0818 33.7941 15.2514 34.0366 15.5127 34.1677L15.6348 34.2725C15.9571 34.846 16.3813 35.0786 16.9072 34.9738C17.1108 34.9345 17.3008 34.8099 17.4738 34.6035C17.6468 34.3971 17.7181 34.2136 17.6842 34.0595L17.4636 33.1813C17.4093 32.9225 17.4738 32.6996 17.657 32.5129L17.6774 31.9755L17.7418 31.8018C17.8165 31.5724 17.8742 31.3955 17.9149 31.2742C17.9556 31.153 17.976 31.0809 17.9692 31.0612L17.8742 30.6123L17.9183 30.5074C18.054 30.4059 18.1253 30.2977 18.132 30.183C18.1422 30.0683 18.1728 29.9176 18.2304 29.7341C18.2847 29.5506 18.3051 29.2655 18.2915 28.8788C18.6546 28.5381 18.8106 28.2431 18.7563 27.9941L18.7428 27.9318C18.6681 27.7844 18.6172 27.7025 18.5901 27.6861C18.6206 27.614 18.641 27.5583 18.6546 27.5124C18.9599 27.4206 19.1126 27.2273 19.1194 26.9357C19.1228 26.644 19.228 26.3753 19.4349 26.1296C19.5062 25.9428 19.5707 25.8183 19.6216 25.7527C19.6758 25.6872 19.7132 25.6118 19.7403 25.5201L19.8116 25.5397L20.1034 25.4185L20.3748 25.4283L20.6259 25.3464L20.9245 25.4152L21.24 25.3202L21.9254 25.3136L22.3088 25.14L23.1808 25.0646C23.2452 25.0515 23.2961 25.0318 23.3335 25.0023L23.3504 24.773L23.4861 24.6976C23.5404 24.8483 23.6117 24.9171 23.6965 24.8975L24.3853 24.6648C24.4803 24.6452 24.5956 24.5731 24.7246 24.4518C25.0842 24.4125 25.3048 24.4191 25.3828 24.4682L25.6746 24.347C25.7696 24.1667 25.851 24.0684 25.9155 24.0553L26.343 24.1012C26.567 24.0553 27.0182 23.8685 27.6968 23.5409L28.4772 23.0297C28.5383 23.0067 28.6367 22.9084 28.7656 22.7315L29.1728 22.7479C29.5392 22.525 29.7665 22.3874 29.8547 22.3383C29.943 22.2891 30.133 22.1384 30.4214 21.8861C30.7098 21.6337 30.8964 21.3716 30.9812 21.0963C31.0287 21.1094 31.0626 21.1127 31.083 21.1094C31.1916 21.0898 31.3952 20.8735 31.7005 20.4705C31.8193 20.4475 31.8905 20.287 31.9177 19.992C32.2264 19.6086 32.4673 18.9926 32.6404 18.1504C32.81 17.2886 32.8406 16.5939 32.7218 16.0467Z" fill="#49380B"/>
</g>
<defs>
<clipPath id="clip0">
<rect width="33" height="35" fill="white"/>
</clipPath>
</defs>
</svg>
